<mxfile host="Electron" modified="2024-03-11T05:00:30.070Z" agent="Mozilla/5.0 (Macintosh; Intel Mac OS X 10_15_7) AppleWebKit/537.36 (KHTML, like Gecko) draw.io/23.1.5 Chrome/120.0.6099.109 Electron/28.1.0 Safari/537.36" etag="XkytfRO5POGXcJ0YF43T" version="23.1.5" type="device">
  <diagram id="pwLb_V2rpPRWv1hu3lNa" name="Page-1">
    <mxGraphModel dx="1026" dy="658" grid="1" gridSize="10" guides="1" tooltips="1" connect="1" arrows="1" fold="1" page="1" pageScale="1" pageWidth="827" pageHeight="1169" math="0" shadow="0">
      <root>
        <mxCell id="0" />
        <mxCell id="1" parent="0" />
        <mxCell id="aLRLjEBRr_nNXpBR3Vck-4" style="edgeStyle=orthogonalEdgeStyle;rounded=0;orthogonalLoop=1;jettySize=auto;html=1;" parent="1" source="aLRLjEBRr_nNXpBR3Vck-1" target="aLRLjEBRr_nNXpBR3Vck-2" edge="1">
          <mxGeometry relative="1" as="geometry" />
        </mxCell>
        <mxCell id="aLRLjEBRr_nNXpBR3Vck-6" style="edgeStyle=orthogonalEdgeStyle;rounded=0;orthogonalLoop=1;jettySize=auto;html=1;" parent="1" source="aLRLjEBRr_nNXpBR3Vck-1" target="aLRLjEBRr_nNXpBR3Vck-3" edge="1">
          <mxGeometry relative="1" as="geometry" />
        </mxCell>
        <mxCell id="aLRLjEBRr_nNXpBR3Vck-1" value="Kubernetes policy&lt;br&gt;report&lt;br&gt;integration&lt;br&gt;Lambda" style="outlineConnect=0;dashed=0;verticalLabelPosition=bottom;verticalAlign=top;align=center;html=1;shape=mxgraph.aws3.lambda_function;fillColor=#F58534;gradientColor=none;" parent="1" vertex="1">
          <mxGeometry x="334" y="280" width="69" height="72" as="geometry" />
        </mxCell>
        <mxCell id="aLRLjEBRr_nNXpBR3Vck-2" value="&lt;br&gt;Target EKS&lt;br&gt;cluster" style="points=[[0,0,0],[0.25,0,0],[0.5,0,0],[0.75,0,0],[1,0,0],[0,1,0],[0.25,1,0],[0.5,1,0],[0.75,1,0],[1,1,0],[0,0.25,0],[0,0.5,0],[0,0.75,0],[1,0.25,0],[1,0.5,0],[1,0.75,0]];outlineConnect=0;fontColor=#232F3E;gradientColor=#F78E04;gradientDirection=north;fillColor=#D05C17;strokeColor=#ffffff;dashed=0;verticalLabelPosition=bottom;verticalAlign=top;align=center;html=1;fontSize=12;fontStyle=0;aspect=fixed;shape=mxgraph.aws4.resourceIcon;resIcon=mxgraph.aws4.eks;" parent="1" vertex="1">
          <mxGeometry x="120" y="277" width="78" height="78" as="geometry" />
        </mxCell>
        <mxCell id="aLRLjEBRr_nNXpBR3Vck-3" value="AWS Security&lt;br&gt;Hub" style="points=[[0,0,0],[0.25,0,0],[0.5,0,0],[0.75,0,0],[1,0,0],[0,1,0],[0.25,1,0],[0.5,1,0],[0.75,1,0],[1,1,0],[0,0.25,0],[0,0.5,0],[0,0.75,0],[1,0.25,0],[1,0.5,0],[1,0.75,0]];outlineConnect=0;fontColor=#232F3E;gradientColor=#F54749;gradientDirection=north;fillColor=#C7131F;strokeColor=#ffffff;dashed=0;verticalLabelPosition=bottom;verticalAlign=top;align=center;html=1;fontSize=12;fontStyle=0;aspect=fixed;shape=mxgraph.aws4.resourceIcon;resIcon=mxgraph.aws4.security_hub;" parent="1" vertex="1">
          <mxGeometry x="514" y="277" width="78" height="78" as="geometry" />
        </mxCell>
        <mxCell id="aLRLjEBRr_nNXpBR3Vck-5" value="1" style="ellipse;whiteSpace=wrap;html=1;" parent="1" vertex="1">
          <mxGeometry x="264" y="290" width="20" height="20" as="geometry" />
        </mxCell>
        <mxCell id="aLRLjEBRr_nNXpBR3Vck-8" value="2" style="ellipse;whiteSpace=wrap;html=1;" parent="1" vertex="1">
          <mxGeometry x="444" y="290" width="20" height="20" as="geometry" />
        </mxCell>
        <mxCell id="aLRLjEBRr_nNXpBR3Vck-9" value="Check Kubernetes&amp;nbsp;&lt;br&gt;policy&lt;br&gt;report" style="text;html=1;strokeColor=none;fillColor=none;align=center;verticalAlign=middle;whiteSpace=wrap;rounded=0;" parent="1" vertex="1">
          <mxGeometry x="244" y="250" width="50" height="20" as="geometry" />
        </mxCell>
        <mxCell id="aLRLjEBRr_nNXpBR3Vck-10" value="Import / archive&amp;nbsp; finding&amp;nbsp;" style="text;html=1;strokeColor=none;fillColor=none;align=center;verticalAlign=middle;whiteSpace=wrap;rounded=0;" parent="1" vertex="1">
          <mxGeometry x="429" y="250" width="50" height="20" as="geometry" />
        </mxCell>
      </root>
    </mxGraphModel>
  </diagram>
</mxfile>
